<?xml version="1.0" encoding="UTF-8" standalone="no"?>
<!DOCTYPE svg PUBLIC "-//W3C//DTD SVG 1.1//EN" "http://www.w3.org/Graphics/SVG/1.1/DTD/svg11.dtd">
<svg width="100%" height="100%" viewBox="0 0 433 368" version="1.1" xmlns="http://www.w3.org/2000/svg" xmlns:xlink="http://www.w3.org/1999/xlink" xml:space="preserve" style="fill-rule:evenodd;clip-rule:evenodd;stroke-linejoin:round;stroke-miterlimit:1.41421;">
    <g transform="matrix(1,0,0,1.79208,0,-811.199)">
        <g id="itl-simple-logo" transform="matrix(4.16667,0,0,2.32504,0,451.395)">
            <path d="M37.072,50.625L28.423,87.911L16.391,87.911L25.039,50.625L37.072,50.625Z" style="fill:rgb(0,140,153);fill-rule:nonzero;"/>
            <path d="M103.845,15.713L45.761,34.047L82.844,4.963L41.594,31.547L57.765,0.543L36.197,34.963L42.822,34.963L41.841,39.213L100.841,29.639L46.261,36.38L103.845,15.713ZM26.761,33.213L2.594,15.713L21.761,35.88L0,33.478L23.005,39.077L10.475,43.663L24.871,42.212L26.543,34.963L30.614,34.963L17.923,5.543L26.761,33.213Z" style="fill:rgb(250,166,51);fill-rule:nonzero;"/>
            <path d="M40.728,36.249L38.636,45.313L25.953,45.313L28.044,36.249L40.728,36.249Z" style="fill:rgb(0,140,153);fill-rule:nonzero;"/>
            <path d="M53.943,88.641C49.803,88.641 46.848,87.961 45.078,86.6C43.306,85.239 42.421,83.219 42.421,80.541C42.421,79.833 42.476,79.146 42.587,78.482C42.698,77.818 42.841,77.043 43.019,76.158L47.094,58.495L42.156,58.495L43.985,50.625L48.909,50.625L51.368,39.967L63.362,39.967L60.914,50.625L72.104,50.625L70.285,58.495L59.105,58.495L55.986,71.941C55.762,72.871 55.549,73.807 55.348,74.748C55.147,75.689 55.046,76.491 55.046,77.154C55.046,78.482 55.417,79.407 56.158,79.926C56.898,80.446 58.043,80.707 59.591,80.707C60.21,80.707 61.023,80.59 62.03,80.358C63.036,80.125 63.837,79.866 64.435,79.578L65.43,79.578L63.571,87.579C62.22,87.911 60.798,88.171 59.304,88.36C57.81,88.547 56.023,88.641 53.943,88.641Z" style="fill:rgb(0,140,153);fill-rule:nonzero;"/>
            <path d="M94.583,36.249L82.64,87.911L70.61,87.911L82.552,36.249L94.583,36.249Z" style="fill:rgb(0,140,153);fill-rule:nonzero;"/>
        </g>
    </g>
</svg>
