<?xml version="1.0" encoding="UTF-8" standalone="no"?>
<!DOCTYPE svg PUBLIC "-//W3C//DTD SVG 1.1//EN" "http://www.w3.org/Graphics/SVG/1.1/DTD/svg11.dtd">
<svg width="100%" height="100%" viewBox="0 0 1200 382" version="1.1" xmlns="http://www.w3.org/2000/svg" xmlns:xlink="http://www.w3.org/1999/xlink" xml:space="preserve" style="fill-rule:evenodd;clip-rule:evenodd;stroke-linejoin:round;stroke-miterlimit:1.41421;">
    <g transform="matrix(1,0,0,1,0,-2.2625)">
        <g transform="matrix(4.16667,0,0,4.16667,0,0)">
            <path d="M37.072,50.625L28.423,87.911L16.391,87.911L25.039,50.625L37.072,50.625Z" style="fill:white;fill-rule:nonzero;"/>
        </g>
        <g transform="matrix(4.16667,0,0,4.16667,0,0)">
            <path d="M103.845,15.713L45.761,34.047L82.844,4.963L41.594,31.547L57.765,0.543L36.197,34.963L42.822,34.963L41.841,39.213L100.841,29.639L46.261,36.38L103.845,15.713ZM26.761,33.213L2.594,15.713L21.761,35.88L0,33.478L23.005,39.077L10.475,43.663L24.871,42.212L26.543,34.963L30.614,34.963L17.923,5.543L26.761,33.213Z" style="fill:white;fill-rule:nonzero;"/>
        </g>
        <g transform="matrix(4.16667,0,0,4.16667,0,0)">
            <path d="M40.728,36.249L38.636,45.313L25.953,45.313L28.044,36.249L40.728,36.249Z" style="fill:white;fill-rule:nonzero;"/>
        </g>
        <g transform="matrix(4.16667,0,0,4.16667,0,0)">
            <path d="M53.943,88.641C49.803,88.641 46.848,87.961 45.078,86.6C43.306,85.239 42.421,83.219 42.421,80.541C42.421,79.833 42.476,79.146 42.587,78.482C42.698,77.818 42.841,77.043 43.019,76.158L47.094,58.495L42.156,58.495L43.985,50.625L48.909,50.625L51.368,39.967L63.362,39.967L60.914,50.625L72.104,50.625L70.285,58.495L59.105,58.495L55.986,71.941C55.762,72.871 55.549,73.807 55.348,74.748C55.147,75.689 55.046,76.491 55.046,77.154C55.046,78.482 55.417,79.407 56.158,79.926C56.898,80.446 58.043,80.707 59.591,80.707C60.21,80.707 61.023,80.59 62.03,80.358C63.036,80.125 63.837,79.866 64.435,79.578L65.43,79.578L63.571,87.579C62.22,87.911 60.798,88.171 59.304,88.36C57.81,88.547 56.023,88.641 53.943,88.641Z" style="fill:white;fill-rule:nonzero;"/>
        </g>
        <g transform="matrix(4.16667,0,0,4.16667,0,0)">
            <path d="M94.583,36.249L82.64,87.911L70.61,87.911L82.552,36.249L94.583,36.249Z" style="fill:white;fill-rule:nonzero;"/>
        </g>
        <g transform="matrix(4.16667,0,0,4.16667,0,0)">
            <path d="M101.864,70.283L94.201,70.283L94.737,67.962L96.873,67.962L98.828,59.516L96.692,59.516L97.228,57.196L104.892,57.196L104.355,59.516L102.22,59.516L100.265,67.962L102.4,67.962L101.864,70.283Z" style="fill:white;fill-rule:nonzero;"/>
        </g>
        <g transform="matrix(4.16667,0,0,4.16667,0,0)">
            <path d="M115.107,62.645C115.107,62.821 115.096,63.011 115.072,63.216C115.049,63.421 115.011,63.635 114.958,63.858L113.485,70.283L110.281,70.283L111.403,65.387C111.485,65.024 111.549,64.713 111.596,64.457C111.643,64.199 111.666,63.958 111.666,63.735C111.666,63.354 111.569,63.076 111.376,62.9C111.183,62.724 110.827,62.636 110.312,62.636C110.06,62.636 109.769,62.691 109.44,62.798C109.112,62.908 108.743,63.07 108.332,63.287L106.726,70.283L103.541,70.283L105.821,60.413L109.005,60.413L108.744,61.502C109.396,61.075 109.989,60.741 110.526,60.5C111.063,60.26 111.654,60.14 112.3,60.14C113.186,60.14 113.875,60.354 114.368,60.782C114.861,61.209 115.107,61.831 115.107,62.645Z" style="fill:white;fill-rule:nonzero;"/>
        </g>
        <g transform="matrix(4.16667,0,0,4.16667,0,0)">
            <path d="M119.252,70.476C118.156,70.476 117.374,70.296 116.905,69.935C116.437,69.576 116.202,69.041 116.202,68.332C116.202,68.144 116.217,67.962 116.246,67.787C116.275,67.611 116.313,67.406 116.36,67.171L117.439,62.496L116.132,62.496L116.616,60.413L117.92,60.413L118.57,57.591L121.745,57.591L121.098,60.413L124.06,60.413L123.578,62.496L120.618,62.496L119.793,66.055C119.733,66.301 119.678,66.548 119.624,66.798C119.571,67.047 119.544,67.259 119.544,67.435C119.544,67.787 119.643,68.031 119.838,68.169C120.034,68.306 120.338,68.375 120.747,68.375C120.911,68.375 121.126,68.345 121.393,68.283C121.659,68.222 121.871,68.153 122.029,68.077L122.293,68.077L121.801,70.195C121.443,70.283 121.067,70.351 120.671,70.402C120.276,70.451 119.803,70.476 119.252,70.476Z" style="fill:white;fill-rule:nonzero;"/>
        </g>
        <g transform="matrix(4.16667,0,0,4.16667,0,0)">
            <path d="M130.754,64.086C130.771,63.98 130.784,63.883 130.793,63.794C130.802,63.707 130.807,63.616 130.807,63.521C130.807,63.056 130.662,62.701 130.373,62.453C130.086,62.207 129.672,62.083 129.131,62.083C128.478,62.083 127.929,62.259 127.485,62.613C127.041,62.965 126.704,63.457 126.475,64.086L130.754,64.086ZM128.332,70.555C126.649,70.555 125.351,70.183 124.436,69.438C123.521,68.693 123.063,67.664 123.063,66.351C123.063,65.453 123.213,64.629 123.512,63.878C123.812,63.128 124.242,62.468 124.805,61.9C125.345,61.348 126.019,60.912 126.828,60.589C127.638,60.266 128.526,60.105 129.493,60.105C130.966,60.105 132.075,60.403 132.823,60.999C133.57,61.594 133.944,62.473 133.944,63.634C133.944,64.034 133.904,64.423 133.825,64.806C133.746,65.187 133.642,65.566 133.513,65.941L126.166,65.941L126.166,66.143C126.166,66.829 126.407,67.365 126.889,67.751C127.37,68.138 128.106,68.332 129.101,68.332C129.793,68.332 130.45,68.214 131.069,67.98C131.689,67.746 132.229,67.485 132.687,67.198L133.039,67.198L132.449,69.738C131.834,70.007 131.186,70.21 130.506,70.349C129.825,70.486 129.101,70.555 128.332,70.555Z" style="fill:white;fill-rule:nonzero;"/>
        </g>
        <g transform="matrix(4.16667,0,0,4.16667,0,0)">
            <path d="M142.572,63.427L142.292,63.427C142.151,63.38 141.952,63.345 141.694,63.322C141.438,63.298 141.183,63.287 140.932,63.287C140.516,63.287 140.115,63.318 139.729,63.378C139.343,63.441 138.945,63.539 138.535,63.673L137.003,70.283L133.817,70.283L136.106,60.413L139.292,60.413L138.955,61.863C139.553,61.423 140.147,61.066 140.742,60.791C141.336,60.515 141.935,60.377 142.537,60.377C142.648,60.377 142.772,60.38 142.91,60.386C143.048,60.392 143.169,60.401 143.274,60.413L142.572,63.427Z" style="fill:white;fill-rule:nonzero;"/>
        </g>
        <g transform="matrix(4.16667,0,0,4.16667,0,0)">
            <path d="M153.431,62.645C153.431,62.821 153.419,63.011 153.396,63.216C153.372,63.421 153.334,63.635 153.281,63.858L151.809,70.283L148.604,70.283L149.727,65.387C149.809,65.024 149.872,64.713 149.919,64.457C149.966,64.199 149.989,63.958 149.989,63.735C149.989,63.354 149.893,63.076 149.699,62.9C149.506,62.724 149.15,62.636 148.635,62.636C148.383,62.636 148.092,62.691 147.764,62.798C147.436,62.908 147.066,63.07 146.655,63.287L145.049,70.283L141.864,70.283L144.145,60.413L147.328,60.413L147.067,61.502C147.719,61.075 148.313,60.741 148.85,60.5C149.387,60.26 149.978,60.14 150.623,60.14C151.509,60.14 152.198,60.354 152.691,60.782C153.185,61.209 153.431,61.831 153.431,62.645Z" style="fill:white;fill-rule:nonzero;"/>
        </g>
        <g transform="matrix(4.16667,0,0,4.16667,0,0)">
            <path d="M160.857,65.625C160.292,65.671 159.762,65.727 159.268,65.791C158.772,65.856 158.352,65.95 158.004,66.073C157.645,66.202 157.37,66.383 157.183,66.618C156.993,66.852 156.899,67.163 156.899,67.549C156.899,67.889 157.024,68.128 157.274,68.265C157.525,68.404 157.889,68.472 158.366,68.472C158.679,68.472 159.013,68.4 159.369,68.257C159.726,68.115 160.06,67.932 160.372,67.71L160.857,65.625ZM160.016,69.238C159.816,69.368 159.576,69.524 159.295,69.707C159.013,69.889 158.752,70.034 158.512,70.14C158.184,70.275 157.876,70.378 157.588,70.449C157.301,70.519 156.902,70.555 156.392,70.555C155.571,70.555 154.9,70.325 154.382,69.865C153.863,69.404 153.604,68.804 153.604,68.064C153.604,67.285 153.788,66.623 154.156,66.08C154.525,65.538 155.072,65.105 155.799,64.783C156.478,64.477 157.287,64.257 158.227,64.123C159.166,63.988 160.183,63.887 161.277,63.823C161.284,63.788 161.297,63.73 161.316,63.652C161.335,63.572 161.345,63.483 161.345,63.382C161.345,62.967 161.151,62.675 160.766,62.509C160.379,62.341 159.802,62.258 159.034,62.258C158.513,62.258 157.938,62.346 157.308,62.522C156.678,62.698 156.205,62.844 155.889,62.961L155.599,62.961L156.064,60.624C156.434,60.53 157.005,60.424 157.778,60.307C158.552,60.19 159.322,60.131 160.09,60.131C161.637,60.131 162.771,60.333 163.495,60.738C164.219,61.142 164.581,61.769 164.581,62.619C164.581,62.736 164.57,62.888 164.55,63.076C164.529,63.263 164.502,63.427 164.467,63.568L162.92,70.283L159.772,70.283L160.016,69.238Z" style="fill:white;fill-rule:nonzero;"/>
        </g>
        <g transform="matrix(4.16667,0,0,4.16667,0,0)">
            <path d="M168.699,70.476C167.604,70.476 166.821,70.296 166.353,69.935C165.884,69.576 165.649,69.041 165.649,68.332C165.649,68.144 165.664,67.962 165.693,67.787C165.723,67.611 165.761,67.406 165.808,67.171L166.887,62.496L165.579,62.496L166.063,60.413L167.367,60.413L168.018,57.591L171.192,57.591L170.545,60.413L173.507,60.413L173.025,62.496L170.065,62.496L169.24,66.055C169.181,66.301 169.125,66.548 169.071,66.798C169.019,67.047 168.991,67.259 168.991,67.435C168.991,67.787 169.09,68.031 169.285,68.169C169.481,68.306 169.785,68.375 170.194,68.375C170.358,68.375 170.573,68.345 170.84,68.283C171.106,68.222 171.318,68.153 171.477,68.077L171.74,68.077L171.248,70.195C170.891,70.283 170.515,70.351 170.118,70.402C169.724,70.451 169.25,70.476 168.699,70.476Z" style="fill:white;fill-rule:nonzero;"/>
        </g>
        <g transform="matrix(4.16667,0,0,4.16667,0,0)">
            <path d="M178.654,56.607L178.101,59.006L174.743,59.006L175.297,56.607L178.654,56.607ZM177.687,60.413L175.397,70.283L172.212,70.283L174.501,60.413L177.687,60.413Z" style="fill:white;fill-rule:nonzero;"/>
        </g>
        <g transform="matrix(4.16667,0,0,4.16667,0,0)">
            <path d="M184.732,67.259C185.002,66.849 185.205,66.401 185.343,65.915C185.48,65.428 185.55,64.836 185.55,64.139C185.55,63.536 185.418,63.072 185.154,62.746C184.891,62.421 184.472,62.258 183.897,62.258C183.452,62.258 183.061,62.367 182.724,62.583C182.387,62.8 182.09,63.108 181.832,63.506C181.592,63.875 181.402,64.333 181.265,64.877C181.127,65.422 181.059,65.982 181.059,66.556C181.059,67.23 181.208,67.712 181.507,68.001C181.806,68.292 182.216,68.437 182.737,68.437C183.118,68.437 183.484,68.333 183.836,68.125C184.188,67.917 184.486,67.628 184.732,67.259ZM188.846,64.025C188.846,64.951 188.69,65.818 188.38,66.626C188.069,67.435 187.633,68.129 187.07,68.709C186.484,69.313 185.805,69.777 185.031,70.103C184.258,70.427 183.355,70.59 182.324,70.59C180.854,70.59 179.726,70.239 178.94,69.536C178.155,68.833 177.763,67.86 177.763,66.618C177.763,65.739 177.909,64.904 178.202,64.113C178.495,63.322 178.929,62.625 179.503,62.021C180.06,61.429 180.743,60.962 181.556,60.619C182.366,60.277 183.276,60.105 184.284,60.105C185.761,60.105 186.89,60.453 187.673,61.146C188.454,61.841 188.846,62.8 188.846,64.025Z" style="fill:white;fill-rule:nonzero;"/>
        </g>
        <g transform="matrix(4.16667,0,0,4.16667,0,0)">
            <path d="M200.47,62.645C200.47,62.821 200.458,63.011 200.435,63.216C200.411,63.421 200.373,63.635 200.32,63.858L198.848,70.283L195.644,70.283L196.766,65.387C196.848,65.024 196.911,64.713 196.958,64.457C197.005,64.199 197.028,63.958 197.028,63.735C197.028,63.354 196.932,63.076 196.738,62.9C196.545,62.724 196.189,62.636 195.674,62.636C195.422,62.636 195.131,62.691 194.803,62.798C194.475,62.908 194.105,63.07 193.694,63.287L192.088,70.283L188.903,70.283L191.184,60.413L194.367,60.413L194.106,61.502C194.758,61.075 195.352,60.741 195.889,60.5C196.426,60.26 197.017,60.14 197.662,60.14C198.548,60.14 199.237,60.354 199.73,60.782C200.224,61.209 200.47,61.831 200.47,62.645Z" style="fill:white;fill-rule:nonzero;"/>
        </g>
        <g transform="matrix(4.16667,0,0,4.16667,0,0)">
            <path d="M207.896,65.625C207.331,65.671 206.801,65.727 206.307,65.791C205.812,65.856 205.391,65.95 205.043,66.073C204.684,66.202 204.409,66.383 204.222,66.618C204.032,66.852 203.938,67.163 203.938,67.549C203.938,67.889 204.063,68.128 204.313,68.265C204.564,68.404 204.928,68.472 205.405,68.472C205.718,68.472 206.052,68.4 206.408,68.257C206.765,68.115 207.099,67.932 207.411,67.71L207.896,65.625ZM207.055,69.238C206.855,69.368 206.615,69.524 206.334,69.707C206.052,69.889 205.791,70.034 205.551,70.14C205.223,70.275 204.915,70.378 204.627,70.449C204.34,70.519 203.941,70.555 203.431,70.555C202.61,70.555 201.939,70.325 201.421,69.865C200.902,69.404 200.643,68.804 200.643,68.064C200.643,67.285 200.827,66.623 201.195,66.08C201.564,65.538 202.111,65.105 202.838,64.783C203.517,64.477 204.326,64.257 205.266,64.123C206.205,63.988 207.222,63.887 208.316,63.823C208.323,63.788 208.336,63.73 208.355,63.652C208.374,63.572 208.384,63.483 208.384,63.382C208.384,62.967 208.19,62.675 207.805,62.509C207.418,62.341 206.841,62.258 206.073,62.258C205.552,62.258 204.977,62.346 204.347,62.522C203.717,62.698 203.244,62.844 202.928,62.961L202.638,62.961L203.104,60.624C203.473,60.53 204.044,60.424 204.817,60.307C205.591,60.19 206.361,60.131 207.129,60.131C208.676,60.131 209.811,60.333 210.534,60.738C211.258,61.142 211.62,61.769 211.62,62.619C211.62,62.736 211.609,62.888 211.589,63.076C211.568,63.263 211.541,63.427 211.506,63.568L209.959,70.283L206.812,70.283L207.055,69.238Z" style="fill:white;fill-rule:nonzero;"/>
        </g>
        <g transform="matrix(4.16667,0,0,4.16667,0,0)">
            <path d="M218.296,56.607L215.135,70.283L211.95,70.283L215.111,56.607L218.296,56.607Z" style="fill:white;fill-rule:nonzero;"/>
        </g>
        <g transform="matrix(4.16667,0,0,4.16667,0,0)">
            <path d="M102.229,77.727L98.152,77.727L95.715,88.283L92.324,88.283L94.76,77.727L90.68,77.727L91.26,75.196L102.81,75.196L102.229,77.727Z" style="fill:white;fill-rule:nonzero;"/>
        </g>
        <g transform="matrix(4.16667,0,0,4.16667,0,0)">
            <path d="M108,85.259C108.27,84.849 108.473,84.401 108.61,83.915C108.748,83.428 108.817,82.836 108.817,82.139C108.817,81.536 108.686,81.072 108.422,80.746C108.158,80.421 107.739,80.258 107.165,80.258C106.72,80.258 106.328,80.367 105.991,80.583C105.654,80.8 105.357,81.108 105.1,81.506C104.859,81.875 104.67,82.333 104.532,82.877C104.395,83.422 104.326,83.982 104.326,84.556C104.326,85.23 104.476,85.712 104.774,86.001C105.073,86.292 105.483,86.437 106.005,86.437C106.386,86.437 106.752,86.333 107.104,86.125C107.455,85.917 107.754,85.628 108,85.259ZM112.113,82.025C112.113,82.951 111.958,83.818 111.647,84.626C111.337,85.435 110.9,86.129 110.338,86.709C109.752,87.313 109.072,87.777 108.299,88.103C107.525,88.427 106.623,88.59 105.592,88.59C104.121,88.59 102.993,88.239 102.208,87.536C101.423,86.833 101.03,85.86 101.03,84.618C101.03,83.739 101.177,82.904 101.47,82.113C101.763,81.322 102.196,80.625 102.771,80.021C103.327,79.429 104.011,78.962 104.823,78.619C105.634,78.277 106.544,78.105 107.552,78.105C109.028,78.105 110.157,78.453 110.94,79.146C111.722,79.841 112.113,80.8 112.113,82.025Z" style="fill:white;fill-rule:nonzero;"/>
        </g>
        <g transform="matrix(4.16667,0,0,4.16667,0,0)">
            <path d="M130.198,78.413L125.038,88.283L121.682,88.283L121.021,81.615L117.689,88.283L114.29,88.283L113.358,78.413L116.599,78.413L116.888,85.213L120.386,78.413L123.194,78.413L123.807,85.212L126.855,78.413L130.198,78.413Z" style="fill:white;fill-rule:nonzero;"/>
        </g>
        <g transform="matrix(4.16667,0,0,4.16667,0,0)">
            <path d="M136.892,82.086C136.909,81.98 136.922,81.883 136.931,81.794C136.939,81.707 136.944,81.616 136.944,81.521C136.944,81.056 136.8,80.701 136.512,80.453C136.224,80.207 135.81,80.083 135.269,80.083C134.615,80.083 134.066,80.259 133.623,80.613C133.179,80.965 132.842,81.457 132.612,82.086L136.892,82.086ZM134.471,88.555C132.787,88.555 131.488,88.183 130.573,87.438C129.658,86.693 129.201,85.664 129.201,84.351C129.201,83.453 129.351,82.629 129.649,81.878C129.949,81.128 130.38,80.468 130.942,79.9C131.482,79.348 132.156,78.912 132.966,78.589C133.775,78.266 134.664,78.105 135.631,78.105C137.104,78.105 138.213,78.403 138.961,78.999C139.708,79.594 140.082,80.473 140.082,81.634C140.082,82.034 140.042,82.423 139.963,82.806C139.884,83.187 139.779,83.566 139.65,83.941L132.304,83.941L132.304,84.143C132.304,84.829 132.545,85.365 133.026,85.751C133.508,86.138 134.245,86.332 135.238,86.332C135.931,86.332 136.588,86.214 137.207,85.98C137.827,85.746 138.366,85.485 138.824,85.198L139.177,85.198L138.587,87.738C137.972,88.007 137.323,88.21 136.644,88.349C135.963,88.486 135.238,88.555 134.471,88.555Z" style="fill:white;fill-rule:nonzero;"/>
        </g>
        <g transform="matrix(4.16667,0,0,4.16667,0,0)">
            <path d="M148.711,81.427L148.431,81.427C148.29,81.38 148.091,81.345 147.833,81.322C147.576,81.298 147.321,81.287 147.07,81.287C146.654,81.287 146.254,81.318 145.867,81.378C145.481,81.441 145.084,81.539 144.674,81.673L143.142,88.283L139.956,88.283L142.245,78.413L145.431,78.413L145.094,79.863C145.691,79.423 146.286,79.066 146.881,78.791C147.475,78.515 148.073,78.377 148.676,78.377C148.787,78.377 148.911,78.38 149.049,78.386C149.187,78.392 149.308,78.401 149.413,78.413L148.711,81.427Z" style="fill:white;fill-rule:nonzero;"/>
        </g>
        <g transform="matrix(4.16667,0,0,4.16667,0,0)">
            <path d="M162.87,88.283L153.422,88.283L156.441,75.196L159.832,75.196L157.397,85.751L163.459,85.751L162.87,88.283Z" style="fill:white;fill-rule:nonzero;"/>
        </g>
        <g transform="matrix(4.16667,0,0,4.16667,0,0)">
            <path d="M170.268,74.607L169.714,77.006L166.356,77.006L166.91,74.607L170.268,74.607ZM169.3,78.413L167.011,88.283L163.825,88.283L166.114,78.413L169.3,78.413Z" style="fill:white;fill-rule:nonzero;"/>
        </g>
        <g transform="matrix(4.16667,0,0,4.16667,0,0)">
            <path d="M177.262,80.698C177.092,80.622 176.867,80.55 176.588,80.482C176.309,80.416 176.063,80.381 175.853,80.381C174.906,80.381 174.146,80.736 173.57,81.445C172.995,82.154 172.707,83.065 172.707,84.178C172.707,84.682 172.83,85.075 173.077,85.356C173.324,85.637 173.768,85.778 174.408,85.778C174.719,85.778 175.035,85.718 175.355,85.597C175.676,85.478 175.977,85.335 176.259,85.171L177.262,80.698ZM180.963,78.413L178.979,87.149C178.764,88.086 178.456,88.866 178.058,89.487C177.659,90.108 177.175,90.603 176.606,90.972C176.02,91.353 175.384,91.62 174.697,91.772C174.012,91.924 173.24,92 172.385,92C171.675,92 170.995,91.958 170.344,91.873C169.693,91.789 169.145,91.69 168.699,91.579L169.184,89.153L169.57,89.153C170.058,89.34 170.55,89.49 171.049,89.601C171.548,89.712 171.99,89.768 172.378,89.768C172.935,89.768 173.419,89.716 173.83,89.615C174.24,89.511 174.563,89.364 174.798,89.17C175.05,88.965 175.251,88.713 175.4,88.415C175.55,88.116 175.671,87.75 175.762,87.316L175.805,87.131C175.347,87.442 174.893,87.688 174.441,87.87C173.99,88.051 173.479,88.142 172.911,88.142C171.803,88.142 170.937,87.864 170.313,87.307C169.688,86.75 169.376,85.91 169.376,84.785C169.376,82.845 169.924,81.253 171.021,80.007C172.117,78.763 173.448,78.14 175.015,78.14C175.577,78.14 176.089,78.208 176.549,78.342C177.01,78.477 177.381,78.647 177.662,78.852L177.883,78.413L180.963,78.413Z" style="fill:white;fill-rule:nonzero;"/>
        </g>
        <g transform="matrix(4.16667,0,0,4.16667,0,0)">
            <path d="M192.33,80.645C192.33,80.786 192.318,80.967 192.295,81.19C192.271,81.413 192.233,81.635 192.181,81.858L190.699,88.283L187.496,88.283L188.628,83.387C188.71,83.012 188.774,82.696 188.821,82.437C188.868,82.179 188.892,81.949 188.892,81.744C188.892,81.351 188.793,81.068 188.597,80.896C188.4,80.722 188.045,80.636 187.529,80.636C187.277,80.636 186.987,80.691 186.659,80.798C186.331,80.908 185.965,81.07 185.561,81.287L183.947,88.283L180.764,88.283L183.916,74.607L187.1,74.607L185.972,79.502C186.616,79.075 187.209,78.741 187.748,78.5C188.287,78.26 188.88,78.14 189.524,78.14C190.422,78.14 191.113,78.359 191.6,78.794C192.087,79.232 192.33,79.848 192.33,80.645Z" style="fill:white;fill-rule:nonzero;"/>
        </g>
        <g transform="matrix(4.16667,0,0,4.16667,0,0)">
            <path d="M196.475,88.476C195.379,88.476 194.597,88.296 194.128,87.935C193.659,87.576 193.425,87.041 193.425,86.332C193.425,86.144 193.439,85.962 193.469,85.787C193.498,85.611 193.536,85.406 193.583,85.171L194.662,80.496L193.354,80.496L193.839,78.413L195.143,78.413L195.793,75.591L198.968,75.591L198.32,78.413L201.282,78.413L200.801,80.496L197.841,80.496L197.016,84.055C196.956,84.301 196.9,84.548 196.847,84.798C196.794,85.047 196.767,85.259 196.767,85.435C196.767,85.787 196.865,86.031 197.061,86.169C197.257,86.306 197.561,86.375 197.97,86.375C198.134,86.375 198.349,86.345 198.615,86.283C198.882,86.222 199.094,86.153 199.252,86.077L199.516,86.077L199.023,88.195C198.666,88.283 198.29,88.351 197.894,88.402C197.499,88.451 197.025,88.476 196.475,88.476Z" style="fill:white;fill-rule:nonzero;"/>
        </g>
        <g transform="matrix(4.16667,0,0,4.16667,0,0)">
            <path d="M206.429,74.607L205.875,77.006L202.518,77.006L203.071,74.607L206.429,74.607ZM205.461,78.413L203.172,88.283L199.986,88.283L202.275,78.413L205.461,78.413Z" style="fill:white;fill-rule:nonzero;"/>
        </g>
        <g transform="matrix(4.16667,0,0,4.16667,0,0)">
            <path d="M216.806,80.645C216.806,80.821 216.794,81.011 216.771,81.216C216.747,81.421 216.709,81.635 216.656,81.858L215.184,88.283L211.979,88.283L213.102,83.387C213.184,83.024 213.247,82.713 213.294,82.457C213.341,82.199 213.364,81.958 213.364,81.735C213.364,81.354 213.268,81.076 213.074,80.9C212.881,80.724 212.525,80.636 212.01,80.636C211.758,80.636 211.467,80.691 211.139,80.798C210.811,80.908 210.441,81.07 210.03,81.287L208.424,88.283L205.239,88.283L207.52,78.413L210.703,78.413L210.442,79.502C211.094,79.075 211.688,78.741 212.225,78.5C212.762,78.26 213.353,78.14 213.998,78.14C214.884,78.14 215.573,78.354 216.066,78.782C216.56,79.209 216.806,79.831 216.806,80.645Z" style="fill:white;fill-rule:nonzero;"/>
        </g>
        <g transform="matrix(4.16667,0,0,4.16667,0,0)">
            <path d="M225.347,80.698C225.177,80.622 224.952,80.55 224.673,80.482C224.394,80.416 224.148,80.381 223.938,80.381C222.991,80.381 222.23,80.736 221.655,81.445C221.08,82.154 220.792,83.065 220.792,84.178C220.792,84.682 220.915,85.075 221.162,85.356C221.409,85.637 221.853,85.778 222.493,85.778C222.804,85.778 223.12,85.718 223.44,85.597C223.761,85.478 224.062,85.335 224.344,85.171L225.347,80.698ZM229.048,78.413L227.063,87.149C226.849,88.086 226.541,88.866 226.143,89.487C225.744,90.108 225.26,90.603 224.691,90.972C224.104,91.353 223.469,91.62 222.782,91.772C222.097,91.924 221.325,92 220.47,92C219.76,92 219.08,91.958 218.429,91.873C217.778,91.789 217.229,91.69 216.784,91.579L217.269,89.153L217.655,89.153C218.143,89.34 218.635,89.49 219.134,89.601C219.633,89.712 220.075,89.768 220.463,89.768C221.02,89.768 221.504,89.716 221.915,89.615C222.325,89.511 222.648,89.364 222.883,89.17C223.135,88.965 223.336,88.713 223.485,88.415C223.635,88.116 223.756,87.75 223.847,87.316L223.89,87.131C223.432,87.442 222.978,87.688 222.526,87.87C222.075,88.051 221.564,88.142 220.996,88.142C219.888,88.142 219.021,87.864 218.397,87.307C217.773,86.75 217.461,85.91 217.461,84.785C217.461,82.845 218.009,81.253 219.105,80.007C220.202,78.763 221.533,78.14 223.1,78.14C223.662,78.14 224.174,78.208 224.634,78.342C225.095,78.477 225.466,78.647 225.747,78.852L225.968,78.413L229.048,78.413Z" style="fill:white;fill-rule:nonzero;"/>
        </g>
        <g transform="matrix(4.16667,0,0,4.16667,0,0)">
            <path d="M233.63,84.829L228.901,91.535L226.941,91.535L230.202,84.829L233.63,84.829Z" style="fill:white;fill-rule:nonzero;"/>
        </g>
        <g transform="matrix(4.16667,0,0,4.16667,0,0)">
            <path d="M249.319,88.283L239.871,88.283L242.891,75.196L246.281,75.196L243.847,85.751L249.908,85.751L249.319,88.283Z" style="fill:white;fill-rule:nonzero;"/>
        </g>
        <g transform="matrix(4.16667,0,0,4.16667,0,0)">
            <path d="M259.89,88.283L250.441,88.283L253.461,75.196L256.851,75.196L254.417,85.751L260.479,85.751L259.89,88.283Z" style="fill:white;fill-rule:nonzero;"/>
        </g>
        <g transform="matrix(4.16667,0,0,4.16667,0,0)">
            <path d="M267.066,88.538C265.297,88.538 263.932,88.103 262.971,87.232C262.01,86.363 261.528,85.116 261.528,83.493C261.528,82.209 261.741,81.046 262.166,80.003C262.591,78.96 263.176,78.058 263.92,77.296C264.646,76.558 265.518,75.981 266.535,75.565C267.551,75.149 268.619,74.941 269.738,74.941C270.641,74.941 271.479,75.033 272.252,75.218C273.025,75.402 273.723,75.673 274.344,76.031L273.57,79.204L273.184,79.204C272.627,78.606 272.073,78.166 271.522,77.885C270.972,77.604 270.324,77.463 269.58,77.463C268.273,77.463 267.196,77.988 266.35,79.037C265.503,80.085 265.08,81.421 265.08,83.044C265.08,84.087 265.314,84.843 265.783,85.312C266.252,85.781 266.938,86.015 267.84,86.015C268.648,86.015 269.407,85.853 270.116,85.527C270.825,85.203 271.496,84.788 272.129,84.284L272.48,84.284L271.716,87.413C271.452,87.518 271.145,87.646 270.793,87.794C270.441,87.945 270.104,88.066 269.782,88.16C269.36,88.283 268.966,88.376 268.6,88.441C268.233,88.505 267.723,88.538 267.066,88.538Z" style="fill:white;fill-rule:nonzero;"/>
        </g>
        <g transform="matrix(4.16667,0,0,4.16667,0,0)">
            <path d="M276.886,75.35L276.886,69.037L274.527,69.037L274.527,68.192L280.201,68.192L280.201,69.037L277.833,69.037L277.833,75.35L276.886,75.35Z" style="fill:white;fill-rule:nonzero;"/>
        </g>
        <g transform="matrix(4.16667,0,0,4.16667,0,0)">
            <path d="M281.144,75.35L281.144,68.192L282.569,68.192L284.264,73.26C284.42,73.732 284.534,74.085 284.605,74.32C284.687,74.06 284.813,73.677 284.986,73.172L286.7,68.192L287.975,68.192L287.975,75.35L287.062,75.35L287.062,69.359L284.981,75.35L284.127,75.35L282.057,69.256L282.057,75.35L281.144,75.35Z" style="fill:white;fill-rule:nonzero;"/>
        </g>
    </g>
</svg>
